# xmcd CD database file
# Copyright (C) 1993-1998 Ti Kan
#
# Track frame offsets:
#  150
#  11725
#  22502
#  32485
#  43795
#  56539
#  68167
#  80050
#  90372
#  101825
#  114750
#  126200
#
# Disc length: 1822 seconds
#
# Revision: 1
# Processed by: cddbd v1.4b41PL1 Copyright (c) Steve Scherf et al.
# Submitted via: CDWizzard Release:4.35
#
DISCID=8a071c0c
DTITLE=Patsy Cline - Walking After Midnight
DYEAR=1900
DGENRE=
TTITLE0=Walking After Midnight
TTITLE1=I Love You Honey
TTITLE2=I'm Blue Again
TTITLE3=Hungry For Love
TTITLE4=Fingerprints
TTITLE5=Lonely Street
TTITLE6=Poor Man's Roses
TTITLE7=Walking Dream
TTITLE8=Cry Not For Me
TTITLE9=Yes I Understand
TTITLE10=That Wonderful Someone
TTITLE11=Too Many Secrets
EXTD=Entered By  videojoc@cyberwar.com
EXTT0=
EXTT1=
EXTT2=
EXTT3=
EXTT4=
EXTT5=
EXTT6=
EXTT7=
EXTT8=
EXTT9=
EXTT10=
EXTT11=
PLAYORDER=
